<svg width="887" height="248" viewBox="0 0 887 248" fill="none" xmlns="http://www.w3.org/2000/svg">
<path d="M372.54 9.89001H395.71V91.47H380.4V97.43H424.04V91.47H408.73V9.89001H431.9L445.86 30.08V9.76562e-06L438.54 3.93001H365.9L358.58 9.76562e-06V30.08L372.54 9.89001Z" fill="black"/>
<path d="M311.62 9.07996C324.36 9.07996 333.3 20.08 340.35 32.79V2.26001L331 9.26001C327.21 5.74001 320 2.47998 312.16 2.47998C296.44 2.47998 285.16 14.41 285.16 28.48C285.16 57.48 331.64 50.03 331.64 74.96C331.64 85.96 323.23 92.04 313.07 92.04C299.66 92.04 289.49 82.42 282.72 66.15V88.78C289.22 94.78 300.2 98.6801 310.09 98.6801C328.65 98.6801 343.7 86.75 343.7 69.54C343.7 40.81 296 45.29 296 23.87C296 15.2 302.37 8.96997 311.58 8.96997" fill="black"/>
<path d="M236.14 46.62H216.22V9.89001H247.52L261.48 28.73V9.76562e-06L254.16 3.93001H189.25V9.89001H203.21V91.47H189.25V97.43H263.79L269.48 68.57L250.23 91.47H216.22V52.58H236.14L246.85 67.21V32.12L236.14 46.62Z" fill="black"/>
<path d="M124.48 53.26L162.96 97.4401H179.77L138.57 52.05C153.07 49.2 164.46 41.2 164.46 27.92C164.46 10.98 148.06 3.92004 125.56 3.92004H88.56V9.92004H102.51V91.5H88.57V97.5H129.49V91.5H115.49V53.26H124.48ZM115.48 9.90002H125.38C140.15 9.90002 150.72 15.46 150.72 28.47C150.72 41.48 140.15 47.71 125.38 47.71H115.48V9.90002Z" fill="black"/>
<path d="M0 9.89001H14V91.47H0V97.47H44.31V91.47H26.97V9.89001H36.97C52.02 9.89001 62.72 16.12 62.72 30.62C62.72 43.36 54.46 51.36 34.67 51.36L45.11 56.36C59.74 56.36 76 47.55 76 31.02C76 12.59 59.88 3.92004 37.11 3.92004H0V9.89001Z" fill="black"/>
<path d="M852.88 46.62H832.96V9.89001H864.24L878.24 28.73V0L870.92 3.93005H805.99V9.93005H819.99V91.51H805.99V97.51H880.52L886.22 68.65L866.97 91.55H832.97V52.66H852.89L863.59 67.26V32.16L852.88 46.62ZM729.02 9.89001V91.47H715.02V97.47H788.24L793.93 68.61L774.69 91.51H742.03V9.93005H756.03V3.93005H715.06V9.93005L729.02 9.89001ZM635.52 56.1L649.34 22.1L662.89 56.1H635.52ZM642.02 3.93005L646.09 14.23L614.09 91.47H602.86V97.47H637.86V91.47H621.15L633.08 62.0601H665.33L677.12 91.47H660.45V97.47H702.33V91.47H691.08L655.3 3.93005H642.02ZM540.85 9.93005H557.52V3.93005H515.65V9.93005H526.89L564.02 103.03L601.16 9.93005H612.4V3.93005H577.17V9.93005H593.84L567 79.1801L540.85 9.93005Z" fill="black"/>
<path d="M240.567 199.674L242.466 204.286L226.053 244.232H220.153V246.47H237.108V244.232H228.766L235.209 228.159H252.164L258.675 244.232H250.197V246.47H268.983V244.232H263.083L244.907 199.674H240.567ZM236.091 225.921L243.619 207.202L251.215 225.921H236.091Z" fill="black"/>
<path d="M291.821 244.232H284.565V223.615H290.194L311.218 246.47H316.643L294.873 223.411C303.012 222.462 309.251 218.46 309.251 211.271C309.251 203.133 301.045 199.674 291.075 199.674H273.171V201.912H280.427V244.232H273.171V246.47H291.821V244.232ZM284.565 201.912H290.804C299.214 201.912 304.775 205.235 304.775 211.611C304.775 217.986 299.214 221.512 290.804 221.512H284.565V201.912Z" fill="black"/>
<path d="M319.146 223.818C319.146 237.789 329.522 247.148 342.272 247.148C351.021 247.148 358.007 241.926 360.041 236.161C356.515 240.705 351.021 243.554 343.764 243.554C333.185 243.554 323.147 235.89 323.147 221.987C323.147 209.983 331.964 201.438 341.933 201.438C350.004 201.438 355.362 205.642 359.16 212.56V198.996L355.023 203.133C351.971 200.895 347.902 198.996 342.34 198.996C330.404 198.996 319.146 208.762 319.146 223.818Z" fill="black"/>
<path d="M364.701 199.674V201.912H371.958V244.232H364.701V246.47H383.352V244.232H376.095V223.615H406.004V244.232H398.747V246.47H417.397V244.232H410.141V201.912H417.397V199.674H398.747V201.912H406.004V221.377H376.095V201.912H383.352V199.674H364.701Z" fill="black"/>
<path d="M422.52 199.674V201.912H429.777V244.232H422.52V246.47H441.171V244.232H433.914V201.912H441.171V199.674H422.52Z" fill="black"/>
<path d="M452.198 201.844H466.168V244.232H458.64V246.47H477.901V244.232H470.305V201.844H484.276L489.566 211.407V197.707L485.904 199.674H450.57L446.908 197.707V211.407L452.198 201.844Z" fill="black"/>
<path d="M519.316 221.377H506.702V201.912H525.081L530.371 211.204V197.707L526.708 199.674H495.308V201.912H502.564V244.232H495.308V246.47H531.795L534.372 233.381L526.708 244.232H506.702V223.615H519.316L523.589 230.6V214.391L519.316 221.377Z" fill="black"/>
<path d="M539.627 223.818C539.627 237.789 550.004 247.148 562.754 247.148C571.502 247.148 578.488 241.926 580.523 236.161C576.996 240.705 571.502 243.554 564.246 243.554C553.666 243.554 543.628 235.89 543.628 221.987C543.628 209.983 552.445 201.438 562.415 201.438C570.485 201.438 575.843 205.642 579.641 212.56V198.996L575.504 203.133C572.452 200.895 568.383 198.996 562.822 198.996C550.885 198.996 539.627 208.762 539.627 223.818Z" fill="black"/>
<path d="M591.083 201.844H605.054V244.232H597.526V246.47H616.787V244.232H609.191V201.844H623.162L628.452 211.407V197.707L624.789 199.674H589.455L585.793 197.707V211.407L591.083 201.844Z" fill="black"/>
<path d="M647.106 201.438C653.481 201.438 657.957 206.049 661.009 212.357V198.793L656.94 202.93C655.176 201.234 651.582 198.996 647.309 198.996C639.781 198.996 634.966 204.489 634.966 210.729C634.966 224.564 658.839 221.716 658.839 234.669C658.839 240.637 654.091 244.707 647.784 244.707C641.748 244.707 636.458 241.044 633.61 233.245V242.265C636.933 245.317 642.019 247.148 646.97 247.148C655.719 247.148 662.772 241.384 662.772 233.042C662.772 219.206 638.561 220.766 638.561 209.576C638.561 204.896 642.155 201.438 647.106 201.438Z" fill="black"/>
</svg>
