<svg width="1368" height="auto" viewBox="0 0 1368 437" fill="none" xmlns="http://www.w3.org/2000/svg">
<path d="M85.4 140.1H58.9V15.7H74.2C97.1 15.7 113.5 25.2 113.5 47.3C113.5 66.7 100.9 78.9 70.7 78.9L86.6 86.5C108.9 86.5 133.7 73.1 133.7 47.9C133.7 19.8 109.1 6.59998 74.4 6.59998H17.8V15.7H39.1V140.1H17.8V149.2H85.4V140.1Z" fill="black"/>
<path d="M215.8 140.1H194.5V81.8H208.1L266.8 149.2H292.4L229.6 80C251.7 75.7 269.1 63.5 269.1 43.2C269.1 17.4 244.1 6.59998 209.8 6.59998H153.4V15.7H174.7V140.1H153.4V149.2H215.8V140.1ZM194.5 15.7H209.6C232.1 15.7 248.2 24.2 248.2 44C248.2 63.8 232.1 73.3 209.6 73.3H194.5V15.7Z" fill="black"/>
<path d="M345.4 140.1V80.8H375.7L392.1 103.1V49.6L375.7 71.7H345.4V15.7H393.1L414.4 44.4V0.599976L403.2 6.59998H304.2V15.7H325.5V140.1H304.2V149.2H417.9L426.6 105.2L397.2 140.1H345.4Z" fill="black"/>
<path d="M537.1 106.8C537.1 63 464.4 69.8 464.4 37.2C464.4 24 474.1 14.5 488.2 14.5C507.6 14.5 521.3 31.2 532 50.7V4.09998L517.7 14.8C511.9 9.39998 501 4.49998 489 4.49998C465 4.49998 447.9 22.7 447.9 44.2C447.9 88.4 518.8 77.1 518.8 115.1C518.8 131.8 506 141.1 490.5 141.1C470 141.1 454.5 126.4 444.2 101.6V136.1C454.1 145.2 470.9 151.2 485.9 151.2C514.2 151.2 537.1 133.1 537.1 106.8Z" fill="black"/>
<path d="M571.5 6.59998L560.3 0.599976V46.5L581.6 15.7H616.9V140.1H593.6V149.2H660.1V140.1H636.8V15.7H672.1L693.4 46.5V0.599976L682.2 6.59998H571.5Z" fill="black"/>
<path d="M869.3 157.6L925.9 15.7H943V6.59998H889.3V15.7H914.7L873.8 121.3L833.9 15.7H859.3V6.59998H795.5V15.7H812.6L869.3 157.6Z" fill="black"/>
<path d="M979.2 95.2H1028.4L1046.4 140H1021V149.1H1084.9V140H1067.7L1013.1 6.49998H992.8L999 22.2L950.2 140H933V149.1H986.3V140H961L979.2 95.2ZM1004 34.3L1024.7 86.2H983L1004 34.3Z" fill="black"/>
<path d="M1221.8 105.2L1192.5 140.1H1142.7V15.7H1163.9V6.59998H1101.5V15.7H1122.8V140.1H1101.5V149.2H1213.1L1221.8 105.2Z" fill="black"/>
<path d="M1359.9 105.2L1330.5 140.1H1278.6V80.8H1309L1325.4 103.1V49.6L1309 71.7H1278.6V15.7H1326.4L1347.7 44.4V0.599976L1336.5 6.59998H1237.5V15.7H1258.8V140.1H1237.5V149.2H1351.2L1359.9 105.2Z" fill="black"/>
<path d="M80.6 291.8H60.3L66.5 307.5L17.7 425.3H0.599976V434.4H53.9V425.3H28.5L46.7 380.5H95.9L113.9 425.3H88.5V434.4H152.4V425.3H135.2L80.6 291.8ZM50.4 371.3L71.5 319.4L92.2 371.3H50.4Z" fill="black"/>
<path d="M273.4 328.3C273.4 302.5 248.4 291.7 214.1 291.7H157.7V300.8H179V425.2H157.7V434.3H220V425.2H198.7V367H212.3L271 434.4H296.6L233.8 365.2C256 360.8 273.4 348.6 273.4 328.3ZM198.8 358.5V300.8H213.9C236.4 300.8 252.5 309.3 252.5 329.1C252.5 348.9 236.4 358.4 213.9 358.4H198.8V358.5Z" fill="black"/>
<path d="M316.1 357.3C316.1 322.4 340.5 299.6 366.1 299.6C390.9 299.6 405.4 316.8 417.6 336.2V289.7L403.8 300.4C395.5 294.8 384.2 289.7 368.3 289.7C333.2 289.7 296.6 320.3 296.6 366.4C296.6 409.4 329.5 436.5 366.2 436.5C393.7 436.5 414.8 420 421.8 400.5C409.2 413.3 394.7 420.8 374.9 420.8C344.7 420.7 316.1 398.2 316.1 357.3Z" fill="black"/>
<path d="M537.7 300.8H559V356.9H477.5V300.8H498.8V291.8H436.4V300.8H457.7V425.3H436.4V434.4H498.8V425.3H477.5V365.9H559V425.3H537.7V434.4H600.1V425.3H578.8V300.8H600.1V291.8H537.7V300.8Z" fill="black"/>
<path d="M623.9 300.8H645.1V425.3H623.9V434.4H686.3V425.3H665V300.8H686.3V291.8H623.9V300.8Z" fill="black"/>
<path d="M714.2 291.8L703 285.8V331.6L724.3 300.8H759.6V425.3H736.3V434.4H802.8V425.3H779.5V300.8H814.8L836.1 331.6V285.8L824.9 291.8H714.2Z" fill="black"/>
<path d="M894 425.3V365.9H924.3L940.7 388.3V334.7L924.3 356.9H894V300.8H941.7L963 329.6V285.8L951.8 291.8H852.8V300.8H874.1V425.3H852.8V434.4H966.5L975.2 390.3L945.8 425.3H894Z" fill="black"/>
<path d="M1007.4 357.3C1007.4 322.4 1031.8 299.6 1057.4 299.6C1082.2 299.6 1096.7 316.8 1108.9 336.2V289.7L1095.1 300.4C1086.8 294.8 1075.5 289.7 1059.6 289.7C1024.5 289.7 987.9 320.3 987.9 366.4C987.9 409.4 1020.8 436.5 1057.5 436.5C1085 436.5 1106.1 420 1113.1 400.5C1100.5 413.3 1086 420.8 1066.2 420.8C1035.9 420.7 1007.4 398.2 1007.4 357.3Z" fill="black"/>
<path d="M1140.1 291.8L1128.9 285.8V331.6L1150.2 300.8H1185.6V425.3H1162.2V434.4H1228.8V425.3H1205.4V300.8H1240.7L1262 331.6V285.8L1250.9 291.8H1140.1Z" fill="black"/>
<path d="M1294.7 322.3C1294.7 309.1 1304.4 299.6 1318.5 299.6C1337.9 299.6 1351.6 316.3 1362.3 335.8V289.3L1348 300C1342.2 294.6 1331.3 289.7 1319.3 289.7C1295.3 289.7 1278.2 307.9 1278.2 329.4C1278.2 373.6 1349.1 362.3 1349.1 400.3C1349.1 417 1336.3 426.3 1320.8 426.3C1300.3 426.3 1284.8 411.6 1274.5 386.8V421.3C1284.4 430.4 1301.2 436.4 1316.2 436.4C1344.5 436.4 1367.5 418.2 1367.5 392C1367.4 348.2 1294.7 355 1294.7 322.3Z" fill="black"/>
</svg>
