<svg viewBox="0 0 1360 75" fill="none" xmlns="http://www.w3.org/2000/svg">
<path d="M1336.98 7.396C1346.1 7.396 1352.5 15.2699 1357.55 24.4045V2.48589L1350.86 7.53977C1347.08 4.37796 1342.3 2.65815 1337.38 2.68494C1326.12 2.68494 1318.08 11.2334 1318.08 21.3301C1318.08 42.1207 1351.33 36.8124 1351.33 54.6503C1351.33 62.5242 1345.33 66.8924 1338.08 66.8924C1328.48 66.8924 1321.21 59.9917 1316.35 48.3357V64.559C1321.01 68.8387 1328.87 71.6477 1335.95 71.6477C1349.2 71.6477 1360 63.0992 1360 50.7687C1360 30.1771 1325.86 33.3842 1325.86 18.0346C1325.86 11.8195 1330.42 7.34072 1337.01 7.34072L1336.98 7.396ZM1252.25 7.92684H1268.81V66.4058H1257.85V70.6856H1289.08V66.4058H1278.12V7.92684H1294.68L1304.62 22.4028V0.838135L1299.38 3.65812H1247.4L1242.15 0.838135V22.4028L1252.25 7.92684ZM1174.76 38.7256C1174.76 58.93 1190.21 71.6477 1207.44 71.6477C1220.34 71.6477 1230.23 63.9065 1233.53 54.7498C1227.61 60.7769 1220.82 64.2714 1211.51 64.2714C1197.35 64.2714 1183.96 53.6771 1183.96 34.4127C1183.96 18.0014 1195.41 7.30754 1207.44 7.30754C1219.08 7.30754 1225.87 15.3805 1231.59 24.504V2.68494L1225.09 7.73882C1220.19 4.37043 1214.36 2.60509 1208.41 2.68494C1191.93 2.68494 1174.76 17.0614 1174.76 38.7256ZM1139.84 34.3021H1125.58V7.92684H1147.99L1157.93 21.4296V0.838135L1152.69 3.65812H1106.23V7.92684H1116.17V66.4058H1106.23V70.6856H1159.58L1163.66 49.9945L1149.88 66.4058H1125.59V38.5265H1139.85L1147.52 49.0214V23.8626L1139.84 34.3021ZM1044.7 7.97105H1061.26V66.45H1050.3V70.7298H1081.52V66.45H1070.6V7.92684H1087.16L1097.1 22.4028V0.838135L1091.86 3.65812H1039.91L1034.67 0.838135V22.4028L1044.7 7.97105ZM994.359 3.70236V7.97105H1004.3V66.45H994.359V70.7298H1023.64V66.45H1013.7V7.92684H1023.64V3.65812L994.359 3.70236ZM907.064 3.70236V7.97105H917.002V66.45H907.064V70.7298H936.357V66.45H926.42V38.5265H964.602V66.4058H954.554V70.6856H983.847V66.4058H973.91V7.92684H983.847V3.65812H954.554V7.92684H964.602V34.2579H926.332V7.92684H936.269V3.65812L907.064 3.70236ZM840.141 38.7698C840.141 58.9743 855.599 71.6919 872.835 71.6919C885.732 71.6919 895.625 63.9507 898.915 54.794C893.008 60.8211 886.218 64.3157 876.91 64.3157C862.743 64.3157 849.361 53.7214 849.361 34.4569C849.328 18.0346 860.811 7.396 872.802 7.396C884.44 7.396 891.231 15.4689 896.95 24.5924V2.68494L890.447 7.73882C885.541 4.36712 879.712 2.60146 873.763 2.68494C857.278 2.68494 840.108 17.0614 840.108 38.7256L840.141 38.7698ZM787.109 7.92684H794.197C804.764 7.92684 812.328 11.908 812.328 21.1974C812.328 30.4868 804.808 35.043 794.242 35.043H787.153L787.109 7.92684ZM797.101 66.4058H787.109V39.0131H793.513L821.061 70.6856H833.086L803.605 38.1395C813.984 36.1047 822.121 30.3983 822.121 20.8435C822.121 8.67883 810.395 3.65812 794.286 3.65812H767.786V7.92684H777.779V66.4058H767.786V70.6856H797.079L797.101 66.4058ZM712.854 41.0479L722.792 16.7186L732.486 41.0479H712.854ZM717.514 3.65812L720.418 11.0344L697.528 66.4058H689.479V70.6856H714.51V66.4058H702.586L711.121 45.3277H734.198L742.666 66.4058H730.708V70.6856H760.675V66.4058H752.604L726.998 3.65812H717.514ZM614.893 34.2579H600.65V7.92684H623.053L633.046 21.4296V0.838135L627.834 3.65812H581.349V7.92684H591.397V66.4058H581.349V70.6856H634.691L638.765 49.9945L624.996 66.4058H600.705V38.5265H614.96L622.623 49.0214V23.8626L614.893 34.2579ZM526.252 7.92684V66.4058H516.314V70.6856H568.685L572.759 49.9945L558.99 66.4058H535.571V7.92684H545.508V3.65812H516.314V7.92684H526.252ZM459.34 41.0479L469.277 16.7186L478.972 41.0479H459.34ZM463.988 3.65812L466.903 11.0344L444.014 66.4058H435.965V70.6856H460.985V66.4058H449.06L457.595 45.3277H480.672L489.119 66.4058H477.183V70.6856H507.15V66.4058H499.101L473.495 3.65812H463.988ZM390.087 7.92684H402.012V3.65812H372.045V7.92684H380.095L406.672 74.6667L433.249 7.92684H441.298V3.65812H416.079V7.92684H427.982L408.781 57.5698L390.087 7.92684ZM269.624 7.92684H286.186V66.4058H275.233V70.6856H306.525V66.4058H295.483V7.92684H312.046L321.983 22.4028V0.838135L316.749 3.65812H264.876L259.631 0.838135V22.4028L269.624 7.92684ZM224.53 7.396C233.639 7.396 240.044 15.2699 245.089 24.4045V2.48589L238.398 7.53977C234.618 4.37796 229.842 2.65815 224.917 2.68494C213.665 2.68494 205.616 11.2334 205.616 21.3301C205.616 42.1207 238.884 36.8124 238.884 54.6503C238.884 62.5242 232.867 66.8924 225.634 66.8924C216.039 66.8924 208.763 59.9917 203.916 48.3357V64.559C208.564 68.8387 216.426 71.6477 223.503 71.6477C236.753 71.6477 247.552 63.0992 247.552 50.7687C247.552 30.1771 213.422 33.3842 213.422 18.0346C213.422 11.8195 217.971 7.34072 224.574 7.34072L224.53 7.396ZM170.548 34.2579H156.249V7.92684H178.652L188.645 21.4296V0.838135L183.4 3.65812H136.948V7.92684H146.941V66.4058H136.948V70.6856H190.29L194.365 49.9945L180.651 66.4058H156.36V38.5265H170.614L178.277 49.0214V23.8626L170.548 34.2579ZM84.225 7.92684H91.3137C101.88 7.92684 109.444 11.908 109.444 21.1974C109.444 30.4868 101.836 35.043 91.2695 35.043H84.1809L84.225 7.92684ZM94.2176 66.4058H84.225V39.0131H90.6291L118.178 70.6856H130.202L100.721 38.1395C111.1 36.1047 119.238 30.3983 119.238 20.8435C119.238 8.67883 107.512 3.65812 91.402 3.65812H64.9023V7.92684H74.8397V66.4058H64.9023V70.6856H94.1955L94.2176 66.4058ZM0 7.92684H9.9374V66.4058H0V70.6856H31.7114V66.4058H19.3007V7.92684H26.4777C37.2432 7.92684 44.906 12.3504 44.906 22.7899C44.906 31.9245 38.9877 37.6529 24.8325 37.6529L32.2966 41.247C42.775 41.247 54.3797 34.9324 54.3797 23.0774C54.3797 9.87317 42.8302 3.65812 26.5439 3.65812H0V7.92684Z" fill="#1D1D1B"/>
</svg>
