<svg width="2815" height="auto" viewBox="0 0 2815 158" fill="none" xmlns="http://www.w3.org/2000/svg">
<path d="M0.800049 6.5H57.4001C92.1001 6.5 116.7 19.7 116.7 47.8C116.7 73 91.9001 86.4 69.6001 86.4L53.7 78.8C83.9 78.8 96.5 66.6 96.5 47.2C96.5 25.1 80.2 15.6 57.2 15.6H41.9001V140H68.4001V149.1H0.800049V140H22.1V15.6H0.800049V6.5Z" fill="black"/>
<path d="M198.8 149.1H136.4V140H157.7V15.6H136.4V6.5H192.8C227.1 6.5 252.1 17.2 252.1 43.1C252.1 63.4 234.7 75.5 212.6 79.9L275.4 149.1H249.8L191.1 81.7H177.5V140H198.8V149.1ZM177.5 73.3H192.6C215.1 73.3 231.2 63.8 231.2 44C231.2 24.2 215.1 15.7 192.6 15.7H177.5V73.3Z" fill="black"/>
<path d="M375.1 49.5V103L358.8 80.7H328.4V140H380.3L409.6 105.1L400.9 149.1H287.2V140H308.5V15.6H287.2V6.5H386.2L397.4 0.5V44.3L376.1 15.6H328.4V71.6H358.8L375.1 49.5Z" fill="black"/>
<path d="M447.4 37.1C447.4 69.8 520.1 62.9 520.1 106.7C520.1 132.9 497.2 151.1 468.8 151.1C453.7 151.1 437 145.1 427.1 136V101.5C437.4 126.3 452.9 141 473.4 141C488.9 141 501.7 131.7 501.7 115C501.7 77 430.8 88.3 430.8 44.1C430.8 22.6 448 4.4 471.9 4.4C483.9 4.4 494.8 9.4 500.6 14.7L515 4V50.5C504.3 31.1 490.6 14.3 471.2 14.3C457.1 14.4 447.4 23.9 447.4 37.1Z" fill="black"/>
<path d="M543.3 46.4V0.5L554.5 6.5H665.3L676.5 0.5V46.4L655.2 15.6H619.9V140H643.3V149.1H576.8V140H600.2V15.6H564.9L543.3 46.4Z" fill="black"/>
<path d="M856.8 121.2L897.7 15.6H872.3V6.5H926V15.6H908.8L852.2 157.6L795.6 15.6H778.4V6.5H842.3V15.6H816.9L856.8 121.2Z" fill="black"/>
<path d="M996.1 6.5L1050.7 140H1067.9V149.1H1004V140H1029.4L1011.4 95.2H962.2L944 140H969.4V149.1H916.1V140H933.3L982 22.2L975.8 6.5H996.1ZM1007.7 86.1L987 34.2L965.9 86.1H1007.7Z" fill="black"/>
<path d="M1084.5 15.6V6.5H1146.9V15.6H1125.6V140H1175.4L1204.7 105.1L1196 149.1H1084.4V140H1105.7V15.6H1084.5Z" fill="black"/>
<path d="M1308.4 49.5V103L1292.1 80.7H1261.7V140H1313.6L1342.9 105.1L1334.2 149.1H1220.5V140H1241.8V15.6H1220.5V6.5H1319.5L1330.7 0.5V44.3L1309.4 15.6H1261.7V71.6H1292.1L1308.4 49.5Z" fill="black"/>
<path d="M1527.2 6.5L1581.8 140H1599V149.1H1535.1V140H1560.5L1542.5 95.2H1493.3L1475.1 140H1500.5V149.1H1447.2V140H1464.4L1513.2 22.2L1507 6.5H1527.2ZM1538.8 86.1L1518.1 34.2L1497 86.1H1538.8Z" fill="black"/>
<path d="M1666.7 149.1H1604.3V140H1625.6V15.6H1604.3V6.5H1660.7C1695 6.5 1720 17.2 1720 43.1C1720 63.4 1702.6 75.5 1680.5 79.9L1743.3 149.1H1717.7L1659 81.7H1645.4V140H1666.7V149.1ZM1645.5 73.3H1660.6C1683.1 73.3 1699.2 63.8 1699.2 44C1699.2 24.2 1683.1 15.7 1660.6 15.7H1645.5V73.3Z" fill="black"/>
<path d="M1814.9 4.5C1830.8 4.5 1842.2 9.7 1850.4 15.2L1864.2 4.5V51C1852 31.6 1837.5 14.4 1812.7 14.4C1787.1 14.4 1762.7 37.1 1762.7 72.1C1762.7 113 1791.2 135.5 1821.4 135.5C1841.2 135.5 1855.7 128.1 1868.3 115.2C1861.3 134.6 1840.2 151.2 1812.7 151.2C1775.9 151.2 1743.1 124.1 1743.1 81.1C1743.2 35 1779.8 4.5 1814.9 4.5Z" fill="black"/>
<path d="M1945.5 6.5V15.6H1924.2V71.6H2005.6V15.6H1984.3V6.5H2046.7V15.6H2025.4V140H2046.7V149.1H1984.3V140H2005.6V80.7H1924.2V140H1945.5V149.1H1883.1V140H1904.4V15.6H1883.1V6.5H1945.5Z" fill="black"/>
<path d="M2133 6.5V15.6H2111.7V140H2133V149.1H2070.6V140H2091.9V15.6H2070.6V6.5H2133Z" fill="black"/>
<path d="M2149.7 46.4V0.5L2160.9 6.5H2271.7L2282.9 0.5V46.4L2261.6 15.6H2226.3V140H2249.7V149.1H2183V140H2206.4V15.6H2171L2149.7 46.4Z" fill="black"/>
<path d="M2387.4 49.5V103L2371.1 80.7H2340.7V140H2392.6L2421.9 105.1L2413.2 149.1H2299.5V140H2320.8V15.6H2299.5V6.5H2398.5L2409.7 0.5V44.3L2388.4 15.6H2340.7V71.6H2371.1L2387.4 49.5Z" fill="black"/>
<path d="M2506.2 4.5C2522.1 4.5 2533.5 9.7 2541.7 15.2L2555.5 4.5V51C2543.3 31.6 2528.8 14.4 2504 14.4C2478.4 14.4 2454 37.1 2454 72.1C2454 113 2482.5 135.5 2512.7 135.5C2532.5 135.5 2547 128.1 2559.6 115.2C2552.6 134.6 2531.5 151.2 2504 151.2C2467.2 151.2 2434.4 124.1 2434.4 81.1C2434.5 35 2471.1 4.5 2506.2 4.5Z" fill="black"/>
<path d="M2575.6 46.4V0.5L2586.8 6.5H2697.6L2708.8 0.5V46.4L2687.5 15.6H2652.2V140H2675.6V149.1H2609.1V140H2632.5V15.6H2597.2L2575.6 46.4Z" fill="black"/>
<path d="M2741.4 37.1C2741.4 69.8 2814.1 62.9 2814.1 106.7C2814.1 132.9 2791.2 151.1 2762.8 151.1C2747.7 151.1 2731 145.1 2721.1 136V101.5C2731.4 126.3 2746.9 141 2767.4 141C2782.9 141 2795.7 131.7 2795.7 115C2795.7 77 2724.8 88.3 2724.8 44.1C2724.8 22.6 2742 4.4 2765.9 4.4C2777.9 4.4 2788.8 9.4 2794.6 14.7L2809 4V50.5C2798.3 31.1 2784.6 14.3 2765.2 14.3C2751.1 14.4 2741.4 23.9 2741.4 37.1Z" fill="black"/>
</svg>
