<svg viewBox="0 0 334 40" fill="none" xmlns="http://www.w3.org/2000/svg">
<path d="M321.011 18.1067H313.575V3.84063H325.27L330.487 11.1564V0L327.766 1.52785H303.499V3.84063H308.744V35.5243H303.499V37.843H331.346L333.473 26.6327L326.285 35.5243H313.603V20.4194H321.045L325.046 26.1055V12.4745L321.011 18.1067ZM274.734 3.84063V35.5243H269.547V37.843H296.887L299.014 26.6327L291.826 35.5243H279.6V3.84063H284.787V1.52785H269.547V3.84063H274.734ZM239.802 21.7855L244.99 8.60395L250.051 21.7855H239.802ZM242.229 1.52785L243.751 5.52427L231.802 35.5243H227.599V37.843H240.661V35.5243H234.436L238.892 24.1042H250.939L255.349 35.5243H249.118V37.843H264.762V35.5243H260.56L247.192 1.52785H242.229ZM203.649 3.84063H209.874V1.52785H194.23V3.84063H198.432L212.307 40L226.181 3.84063H230.384V1.52785H217.218V3.84063H223.432L213.408 30.737L203.649 3.84063ZM140.76 3.84063H149.406V35.5243H143.688V37.843H160.024V35.5243H154.26V3.84063H162.906L168.094 11.6836V0L165.362 1.52785H138.281L135.543 0V11.6836L140.76 3.84063ZM117.218 3.55302C121.974 3.55302 125.317 7.81905 127.951 12.7681V0.892745L124.458 3.63092C122.484 1.91786 119.991 0.986079 117.42 1.00059C111.546 1.00059 107.344 5.63212 107.344 11.1025C107.344 22.3667 124.712 19.4907 124.712 29.1552C124.712 33.4212 121.57 35.7879 117.794 35.7879C112.785 35.7879 108.986 32.0491 106.456 25.734V34.5237C108.883 36.8424 112.987 38.3643 116.682 38.3643C123.599 38.3643 129.237 33.7328 129.237 27.0521C129.237 15.8957 111.419 17.6333 111.419 9.31695C111.419 5.94967 113.794 3.52307 117.241 3.52307L117.218 3.55302ZM89.0361 18.1067H81.5712V3.84063H93.2671L98.4838 11.1564V0L95.7458 1.52785H71.4952V3.84063H76.7119V35.5243H71.4952V37.843H99.3427L101.47 26.6327L94.3104 35.5243H81.6289V20.4194H89.0706L93.0711 26.1055V12.4745L89.0361 18.1067ZM43.9704 3.84063H47.6711C53.1876 3.84063 57.1362 5.99761 57.1362 11.0306C57.1362 16.0635 53.1646 18.5321 47.6481 18.5321H43.9474L43.9704 3.84063ZM49.1872 35.5243H43.9704V20.683H47.3137L61.6958 37.843H67.9731L52.5823 20.2097C58.0008 19.1072 62.2492 16.0156 62.2492 10.8388C62.2492 4.24805 56.1274 1.52785 47.7172 1.52785H33.8828V3.84063H39.0707V35.5243H33.8828V37.843H49.1756L49.1872 35.5243ZM0 3.84063H5.18791V35.5243H0V37.843H16.5552V35.5243H10.0761V3.84063H13.8229C19.4431 3.84063 23.4436 6.23727 23.4436 11.8934C23.4436 16.8424 20.3539 19.9461 12.964 19.9461L16.8607 21.8933C22.3311 21.8933 28.3894 18.4721 28.3894 12.0491C28.3894 4.89514 22.3599 1.52785 13.8575 1.52785H0V3.84063Z" fill="#1D1D1B"/>
</svg>
