<svg width="355" height="auto" viewBox="0 0 355 114" fill="none" xmlns="http://www.w3.org/2000/svg">
<path d="M22.1044 36.3628H15.1968V3.93605H19.185C25.1542 3.93605 29.4291 6.41237 29.4291 12.1731C29.4291 17.23 26.1447 20.4101 18.2726 20.4101L22.4172 22.3911C28.23 22.3911 34.6945 18.8982 34.6945 12.3295C34.6945 5.00477 28.2822 1.56399 19.2371 1.56399H4.48344V3.93605H10.0356V36.3628H4.48344V38.7349H22.1044V36.3628Z" fill="black"/>
<path d="M56.0952 36.3628H50.543V21.166H54.088L69.3891 38.7349H76.0621L59.6923 20.6968C65.453 19.576 69.9886 16.3958 69.9886 11.1043C69.9886 4.37918 63.472 1.56399 54.5312 1.56399H39.8296V3.93605H45.3818V36.3628H39.8296V38.7349H56.0952V36.3628ZM50.543 3.93605H54.479C60.344 3.93605 64.5407 6.1517 64.5407 11.3129C64.5407 16.474 60.344 18.9504 54.479 18.9504H50.543V3.93605Z" fill="black"/>
<path d="M89.8774 36.3628V20.9054H97.7755L102.05 26.7182V12.7726L97.7755 18.5333H89.8774V3.93605H102.311L107.863 11.4171V0L104.944 1.56399H79.138V3.93605H84.6901V36.3628H79.138V38.7349H108.776L111.043 27.2656L103.38 36.3628H89.8774Z" fill="black"/>
<path d="M139.847 27.6826C139.847 16.2655 120.897 18.038 120.897 9.54035C120.897 6.09957 123.425 3.62325 127.1 3.62325C132.157 3.62325 135.728 7.97636 138.518 13.0593V0.912328L134.79 3.70145C133.278 2.29385 130.437 1.01659 127.309 1.01659C121.053 1.01659 116.596 5.7607 116.596 11.365C116.596 22.8864 135.077 19.9409 135.077 29.8462C135.077 34.1993 131.74 36.6235 127.7 36.6235C122.356 36.6235 118.316 32.7917 115.631 26.3272V35.3201C118.212 37.6922 122.591 39.2562 126.501 39.2562C133.878 39.2562 139.847 34.5381 139.847 27.6826Z" fill="black"/>
<path d="M148.814 1.56399L145.894 0V11.9645L151.447 3.93605H160.648V36.3628H154.574V38.7349H171.909V36.3628H165.835V3.93605H175.037L180.589 11.9645V0L177.669 1.56399H148.814Z" fill="black"/>
<path d="M226.44 40.9244L241.194 3.93605H245.651V1.56399H231.653V3.93605H238.274L227.613 31.4623L217.212 3.93605H223.833V1.56399H207.203V3.93605H211.66L226.44 40.9244Z" fill="black"/>
<path d="M255.087 24.6589H267.912L272.604 36.3367H265.983V38.7088H282.639V36.3367H278.156L263.924 1.53793H258.632L260.248 5.63037L247.528 36.3367H243.044V38.7088H256.938V36.3367H250.343L255.087 24.6589ZM261.552 8.78442L266.947 22.3129H256.078L261.552 8.78442Z" fill="black"/>
<path d="M318.324 27.2656L310.687 36.3628H297.706V3.93605H303.232V1.56399H286.966V3.93605H292.519V36.3628H286.966V38.7349H316.057L318.324 27.2656Z" fill="black"/>
<path d="M354.322 27.2656L346.659 36.3628H333.13V20.9054H341.054L345.329 26.7182V12.7726L341.054 18.5333H333.13V3.93605H345.59L351.142 11.4171V0L348.223 1.56399H322.417V3.93605H327.969V36.3628H322.417V38.7349H352.054L354.322 27.2656Z" fill="black"/>
<path d="M20.8532 75.9057H15.5617L17.1778 79.9982L4.45738 110.705H0V113.077H13.8935V110.705H7.27256L12.0167 99.0267H24.8414L29.5334 110.705H22.9125V113.077H39.569V110.705H35.0855L20.8532 75.9057ZM12.9811 96.6286L18.4812 83.1001L23.8769 96.6286H12.9811Z" fill="black"/>
<path d="M71.3701 85.42C71.3701 78.6948 64.8535 75.8797 55.9127 75.8797H41.2112V78.2517H46.7633V110.678H41.2112V113.051H57.4506V110.678H51.8984V95.5077H55.4435L70.7445 113.077H77.4176L61.0478 95.0385C66.8346 93.8916 71.3701 90.7115 71.3701 85.42ZM51.9245 93.2921V78.2517H55.8606C61.7255 78.2517 65.9222 80.4674 65.9222 85.6285C65.9222 90.7897 61.7255 93.266 55.8606 93.266H51.9245V93.2921Z" fill="black"/>
<path d="M81.9792 92.9793C81.9792 83.8821 88.3394 77.9389 95.0125 77.9389C101.477 77.9389 105.257 82.4223 108.437 87.4793V75.3583L104.84 78.1474C102.676 76.6877 99.7305 75.3583 95.5859 75.3583C86.4366 75.3583 76.8962 83.3347 76.8962 95.3513C76.8962 106.56 85.4721 113.624 95.0385 113.624C102.207 113.624 107.707 109.323 109.532 104.24C106.247 107.577 102.467 109.532 97.3063 109.532C89.4342 109.505 81.9792 103.64 81.9792 92.9793Z" fill="black"/>
<path d="M139.743 78.2517H145.295V92.875H124.051V78.2517H129.603V75.9057H113.337V78.2517H118.889V110.705H113.337V113.077H129.603V110.705H124.051V95.221H145.295V110.705H139.743V113.077H156.008V110.705H150.456V78.2517H156.008V75.9057H139.743V78.2517Z" fill="black"/>
<path d="M161.951 78.2517H167.477V110.705H161.951V113.077H178.217V110.705H172.665V78.2517H178.217V75.9057H161.951V78.2517Z" fill="black"/>
<path d="M185.75 75.9057L182.831 74.3417V86.2802L188.383 78.2517H197.584V110.705H191.511V113.077H208.845V110.705H202.771V78.2517H211.973L217.525 86.2802V74.3417L214.606 75.9057H185.75Z" fill="black"/>
<path d="M232.096 110.705V95.221H239.994L244.269 101.06V87.0883L239.994 92.875H232.096V78.2517H244.53L250.082 85.7589V74.3417L247.163 75.9057H221.357V78.2517H226.909V110.705H221.357V113.077H250.995L253.262 101.581L245.599 110.705H232.096Z" fill="black"/>
<path d="M261.395 92.9793C261.395 83.8821 267.755 77.9389 274.428 77.9389C280.893 77.9389 284.673 82.4223 287.853 87.4793V75.3583L284.255 78.1474C282.092 76.6877 279.146 75.3583 275.002 75.3583C265.852 75.3583 256.312 83.3347 256.312 95.3513C256.312 106.56 264.888 113.624 274.454 113.624C281.623 113.624 287.123 109.323 288.947 104.24C285.663 107.577 281.883 109.532 276.722 109.532C268.824 109.505 261.395 103.64 261.395 92.9793Z" fill="black"/>
<path d="M295.985 75.9057L293.066 74.3417V86.2802L298.618 78.2517H307.846V110.705H301.746V113.077H319.106V110.705H313.007V78.2517H322.208L327.76 86.2802V74.3417L324.867 75.9057H295.985Z" fill="black"/>
<path d="M336.024 83.856C336.024 80.4152 338.552 77.9389 342.227 77.9389C347.284 77.9389 350.855 82.292 353.645 87.375V75.2541L349.917 78.0432C348.405 76.6356 345.564 75.3583 342.436 75.3583C336.18 75.3583 331.723 80.1024 331.723 85.7067C331.723 97.2281 350.204 94.2826 350.204 104.188C350.204 108.541 346.867 110.965 342.827 110.965C337.483 110.965 333.443 107.133 330.758 100.669V109.662C333.339 112.034 337.718 113.598 341.628 113.598C349.005 113.598 355 108.854 355 102.024C354.974 90.6072 336.024 92.3798 336.024 83.856Z" fill="black"/>
</svg>
