<svg width="1440" height="900" viewBox="0 0 1440 900" fill="none" xmlns="http://www.w3.org/2000/svg">
<g clip-path="url(#clip0)">
<g style="mix-blend-mode:multiply">
<path d="M15671.3 1.02008C15671.3 -58.5723 15717.6 -106.789 15754.6 -127.333L15965.5 -14.9391C16072 -76.9084 16141.4 -248.894 15953.9 -248.894C15770.9 -248.894 15534.6 -56.1954 15534.6 113.414C15534.6 274.025 15750 386.249 15750 556.028C15748.4 578.428 15742 600.239 15731.3 620.002C15720.5 639.766 15705.6 657.026 15687.6 670.628L15349.4 597.284C15296.1 739.558 15342.4 828.863 15446.6 828.863C15629.6 828.863 15891.3 625.128 15891.3 434.466C15891.3 278.609 15671.3 157.047 15671.3 1.02008ZM14689.2 661.461C14654.9 750.934 14696.3 814.262 14784.2 814.262C14904.3 814.262 15145.5 676.741 15261.3 527.675L14858.3 665.195L15145.5 -81.8321H15365.5L15435 -196.433H15189.6L15303.1 -494.565L15083.1 -430.728L14999.6 -196.772H14842.2L14773.6 -82.1709H14958.8L14689.2 661.461ZM14057 484.89C14057 287.777 14189 -17.3162 14367.4 -145.669L14573.1 1.02008C14638 -37.8593 14672.8 -92.8677 14672.8 -143.292C14672.8 -200.677 14624.1 -248.894 14520 -248.894C14181.8 -248.894 13866.8 228.015 13866.8 544.653C13866.8 728.014 13948 828.863 14070.6 828.863C14211.9 828.863 14399.4 688.964 14473.5 553.65L14128.5 695.925C14086.8 661.969 14056.7 583.532 14056.7 484.89H14057ZM13598.2 -177.248C13642.2 -161.289 13658.3 -126.314 13658.3 -71.8147C13658.3 61.292 13512.4 191.852 13263.9 279.118C13335.8 72.667 13488.6 -140.576 13597.5 -177.248H13598.2ZM13031.6 545.162C13031.6 728.523 13112.7 829.371 13235.5 829.371C13376.8 829.371 13564.4 689.474 13638.4 554.16L13293.4 696.435C13251.8 662.479 13221.6 584.042 13221.6 485.4C13223.6 420.648 13235.2 356.536 13255.9 295.077C13513.1 283.702 13827.9 166.724 13827.9 -78.4363C13827.9 -174.871 13759.3 -248.215 13645 -248.215C13334.6 -248.215 13031.1 228.694 13031.1 545.331L13031.6 545.162ZM12320.2 662.14C12285.9 751.613 12327 814.941 12415.2 814.941C12535.2 814.941 12776.4 677.419 12892.2 528.354L12489.2 665.875L12776.4 -81.1523H12996.4L13065.9 -195.753H12820.5L12933.9 -493.885L12716.1 -430.728L12632.8 -196.772H12475.3L12405.7 -82.1709H12591.1L12320.2 662.14ZM11657.8 662.14C11623.5 751.613 11664.8 814.941 11752.8 814.941C11872.8 814.941 12077 684.211 12181.4 542.106L11835.6 666.044L12192.2 -248.894C12055.1 -248.894 11817.1 -173.174 11731.3 -19.5236H11923.5L11657.8 662.14ZM12215.9 -534.802C12242.4 -535.337 12268.1 -543.596 12289.8 -558.543C12311.6 -573.491 12328.4 -594.461 12338.1 -618.825C12347.9 -643.19 12350.2 -669.863 12344.7 -695.502C12339.2 -721.141 12326.2 -744.603 12307.3 -762.948C12288.3 -781.292 12264.4 -793.702 12238.4 -798.622C12212.4 -803.541 12185.5 -800.752 12161.1 -790.602C12136.7 -780.453 12115.9 -763.396 12101.2 -741.569C12086.5 -719.743 12078.7 -694.118 12078.7 -667.909C12078.8 -650.218 12082.4 -632.716 12089.4 -616.418C12096.3 -600.121 12106.5 -585.352 12119.2 -572.97C12132 -560.587 12147.1 -550.837 12163.7 -544.285C12180.3 -537.733 12198 -534.51 12215.9 -534.802ZM11549 -14.2593C11549 -138.198 11523.5 -248.215 11411.9 -248.215C11247.4 -248.215 11083 -57.8935 10931.7 143.974H10897.4L11319.1 -982L10828 -826.143L11038.7 -720.54L10472.9 807.47H10660.5L10850.3 321.393C10949.9 172.327 11225.5 -121.22 11343.6 -125.804C11369.2 69.1019 11267.1 422.242 11158.3 633.277H10878.1C10841 738.71 10868.8 830.391 10961.4 830.391C11167.2 830.391 11547.5 296.096 11547.5 -13.4106L11549 -14.2593ZM9940.11 486.419C9940.11 289.305 10072.1 -15.7878 10250.5 -144.141L10456.2 2.54858C10521.1 -36.3308 10555.9 -91.3392 10555.9 -141.764C10555.9 -199.149 10507.2 -247.367 10402.9 -247.367C10064.9 -247.367 9749.94 229.542 9749.94 546.18C9749.94 729.542 9830.88 830.391 9953.65 830.391C10094.9 830.391 10282.5 690.493 10356.6 555.179L10011.6 697.454C9969.94 663.498 9939.76 585.06 9939.76 486.419H9940.11ZM9272.73 268.592C9370.13 119.526 9474.38 -13.4108 9555.32 -86.7552L9671.23 49.0679C9733.65 23.7708 9808.41 -31.2376 9808.41 -122.918C9808.41 -196.433 9755.26 -246.857 9678.78 -246.857C9539.88 -246.857 9433.23 -77.0778 9305.82 152.124H9278.04L9352.29 -246.857C9176.19 -246.857 8997.86 -122.918 8942.3 -17.4852H9171.56L8851.94 807.98H9046.56L9272.73 268.592ZM8341.8 -456.025L8307.51 108.151H7862.88L8341.8 -456.025ZM8273.21 706.622H7988.22L7948.96 807.47H8632.11L8671.54 706.622H8479.32L8569.52 -868.757L7210.08 706.622H7017.86L6978.42 807.47H7601.55L7640.82 706.622H7360.12L7781.6 208.999H8307.34L8273.21 706.622ZM5732.66 -52.4597H5392.11V-673.851H5927.11L6165.8 -355.176V-842.781L6040.63 -776.228H4931.37V-675.379H5169.89V705.094H4931.37V805.943H6205.07L6302.46 317.488L5973.58 705.094H5392.11V47.0306H5732.66L5919.74 294.568V-299.659L5732.66 -52.4597ZM3615.82 -673.851V705.094H3380.56V805.943H4631.11L4728.51 317.488L4399.62 705.094H3841.48V-675.379H4080V-776.228H3380.56V-675.379L3615.82 -673.851ZM2017.86 108.151L2253.98 -467.399L2485.64 108.151H2017.86ZM2128.97 -774.7L2197.56 -600.507L1651.08 706.791H1462.97V807.64H2060.38V705.094H1775.57L1979.45 207.472H2530.56L2732.04 705.094H2447.23V805.943H3162.79V705.094H2970.39L2359.09 -776.228L2128.97 -774.7ZM367.426 -675.379H652.242V-776.228H-63.3154V-675.379H128.905L763.357 900L1397.81 -675.379H1590.03V-776.228H988.161V-675.379H1272.81L814.287 496.096L367.426 -675.379ZM-2127 -675.379H-1730.9V705.094H-1992.56V805.943H-1246.83V705.094H-1508.49V-675.379H-1112.56L-874.043 -333.784V-843.121L-999.046 -776.567H-2240.51L-2365.52 -843.121V-333.784L-2127 -675.379ZM-3203.85 -689.131C-2986.25 -689.131 -2833.3 -503.393 -2712.92 -287.774V-804.241L-2872.74 -685.396C-2937.55 -744.989 -3060.33 -799.997 -3194.59 -799.997C-3463.29 -799.997 -3655.51 -598.3 -3655.51 -359.76C-3655.51 130.901 -2861.08 4.75555 -2861.08 426.826C-2861.08 612.564 -3004.77 715.45 -3178.48 715.45C-3407.73 715.45 -3581.44 552.463 -3697.18 277.421V660.272C-3586.07 761.291 -3398.48 827.674 -3229.4 827.674C-2912 827.674 -2654.97 625.977 -2654.97 335.315C-2654.97 -150.762 -3470.15 -75.041 -3470.15 -437.349C-3470.15 -584.208 -3361.44 -689.641 -3203.85 -689.641V-689.131ZM-4493.85 -53.9881H-4834.39V-675.379H-4300.08L-4060.02 -356.704V-842.781L-4185.02 -776.228H-5294.63V-675.379H-5056.11V705.094H-5294.63V805.943H-4020.92L-3923.7 317.488L-4252.93 705.094H-4834.39V47.0306H-4493.85L-4310.89 294.568V-299.659L-4493.85 -53.9881ZM-6555.13 -675.379H-6386.06C-6133.65 -675.379 -5952.92 -581.321 -5952.92 -361.288C-5952.92 -141.254 -6133.65 -35.6517 -6386.06 -35.6517H-6555.13V-675.379ZM-6316.61 705.094H-6555.13V58.4055H-6402.18L-5744.58 805.433H-5457.36L-6161.43 37.8619C-5913.65 -10.3553 -5719.03 -145.669 -5719.03 -370.456C-5719.03 -657.043 -5999.21 -776.228 -6383.83 -776.228H-7016.05V-675.379H-6777.53V705.094H-7016.05V805.943H-6316.61V705.094ZM-8565.49 -675.379H-8326.79V705.094H-8565.49V805.943H-7808.09V705.094H-8104.56V-675.379H-7933.09C-7675.88 -675.379 -7493.09 -569.946 -7493.09 -324.616C-7493.09 -108.997 -7634.38 26.317 -7973.22 26.317L-7794.88 111.207C-7544.7 111.207 -7266.75 -37.8596 -7266.75 -317.655C-7266.75 -629.539 -7542.47 -776.058 -7931.55 -776.058H-8566L-8565.49 -675.379Z" fill="black"/>
</g>
</g>
<defs>
<clipPath id="clip0">
<rect width="1440" height="900" fill="white"/>
</clipPath>
</defs>
</svg>
