<svg width="1440" height="900" viewBox="0 0 1440 900" fill="none" xmlns="http://www.w3.org/2000/svg">
<g clip-path="url(#clip0)">
<path d="M15577.4 819.689C15577.4 766.239 15619 722.992 15652.2 704.567L15841.4 805.374C15936.9 749.793 15999.2 595.536 15830.9 595.536C15666.8 595.536 15454.9 768.371 15454.9 920.496C15454.9 1064.55 15648 1165.21 15648 1317.48C15646.6 1337.58 15640.9 1357.14 15631.3 1374.86C15621.6 1392.59 15608.2 1408.07 15592.1 1420.27L15288.7 1354.49C15240.9 1482.1 15282.4 1562.2 15376 1562.2C15540.1 1562.2 15774.8 1379.46 15774.8 1208.45C15774.8 1068.66 15577.4 959.632 15577.4 819.689ZM14696.6 1412.05C14665.8 1492.3 14702.9 1549.1 14781.8 1549.1C14889.5 1549.1 15105.9 1425.75 15209.7 1292.05L14848.2 1415.4L15105.9 745.377H15303.2L15365.5 642.589H15145.4L15247.2 375.19L15049.9 432.446L14975 642.285H14833.8L14772.3 745.073H14938.4L14696.6 1412.05ZM14129.5 1253.68C14129.5 1076.89 14247.9 803.242 14407.9 688.12L14592.4 819.689C14650.6 784.817 14681.8 735.479 14681.8 690.252C14681.8 638.782 14638.1 595.536 14544.8 595.536C14241.5 595.536 13958.9 1023.28 13958.9 1307.28C13958.9 1471.74 14031.7 1562.2 14141.6 1562.2C14268.4 1562.2 14436.6 1436.72 14503.1 1315.35L14193.6 1442.96C14156.2 1412.51 14129.2 1342.15 14129.2 1253.68H14129.5ZM13717.9 659.797C13757.4 674.111 13771.9 705.481 13771.9 754.362C13771.9 873.747 13641 990.849 13418.1 1069.12C13482.6 883.95 13619.6 692.689 13717.3 659.797H13717.9ZM13209.7 1307.74C13209.7 1472.2 13282.5 1562.65 13392.6 1562.65C13519.3 1562.65 13687.6 1437.18 13754 1315.81L13444.6 1443.42C13407.2 1412.96 13380.1 1342.61 13380.1 1254.14C13382 1196.06 13392.3 1138.56 13410.9 1083.43C13641.6 1073.23 13924 968.312 13924 748.423C13924 661.929 13862.5 596.145 13759.9 596.145C13481.5 596.145 13209.2 1023.89 13209.2 1307.89L13209.7 1307.74ZM12571.6 1412.66C12540.8 1492.91 12577.7 1549.71 12656.8 1549.71C12764.4 1549.71 12980.8 1426.36 13084.7 1292.66L12723.2 1416.01L12980.8 745.987H13178.2L13240.5 643.199H13020.4L13122 375.799L12926.7 432.446L12851.9 642.285H12710.8L12648.3 745.073H12814.6L12571.6 1412.66ZM11977.4 1412.66C11946.6 1492.91 11983.7 1549.71 12062.6 1549.71C12170.3 1549.71 12353.5 1432.45 12447.1 1305L12136.9 1416.16L12456.8 595.536C12333.8 595.536 12120.3 663.451 12043.4 801.263H12215.8L11977.4 1412.66ZM12478 339.1C12501.8 338.62 12524.8 331.213 12544.3 317.806C12563.9 304.4 12578.9 285.591 12587.7 263.738C12596.4 241.885 12598.5 217.961 12593.5 194.965C12588.6 171.969 12576.9 150.925 12560 134.472C12543 118.018 12521.5 106.888 12498.2 102.475C12474.9 98.0627 12450.8 100.565 12428.9 109.668C12407 118.771 12388.3 134.07 12375.2 153.647C12362 173.223 12355 196.207 12355 219.714C12355.1 235.581 12358.3 251.279 12364.5 265.897C12370.8 280.514 12379.9 293.76 12391.3 304.867C12402.8 315.973 12416.3 324.718 12431.2 330.595C12446.1 336.471 12462 339.362 12478 339.1ZM11879.9 805.984C11879.9 694.821 11857 596.145 11756.8 596.145C11609.3 596.145 11461.8 766.848 11326.2 947.906H11295.4L11673.6 -62L11233.1 77.7909L11422.1 172.508L10914.6 1543.01H11082.8L11253.1 1107.04C11342.5 973.337 11589.6 710.049 11695.6 705.937C11718.5 880.752 11627 1197.49 11529.3 1386.77H11278C11244.8 1481.34 11269.7 1563.57 11352.8 1563.57C11537.3 1563.57 11878.5 1084.35 11878.5 806.745L11879.9 805.984ZM10436.7 1255.05C10436.7 1078.26 10555.1 804.613 10715.1 689.491L10899.7 821.059C10957.8 786.188 10989 736.85 10989 691.623C10989 640.153 10945.3 596.906 10851.8 596.906C10548.7 596.906 10266.1 1024.65 10266.1 1308.65C10266.1 1473.11 10338.7 1563.57 10448.8 1563.57C10575.6 1563.57 10743.8 1438.09 10810.3 1316.72L10500.8 1444.33C10463.4 1413.88 10436.4 1343.52 10436.4 1255.05H10436.7ZM9838.06 1059.68C9925.42 925.979 10018.9 806.745 10091.5 740.961L10195.5 862.783C10251.5 840.094 10318.6 790.756 10318.6 708.526C10318.6 642.59 10270.9 597.363 10202.3 597.363C10077.7 597.363 9982.02 749.641 9867.74 955.216H9842.83L9909.43 597.363C9751.47 597.363 9591.5 708.526 9541.67 803.091H9747.31L9460.61 1543.47H9635.19L9838.06 1059.68ZM9003.03 409.757L8972.27 915.776H8573.44L9003.03 409.757ZM8941.51 1452.56H8685.88L8650.65 1543.01H9263.43L9298.8 1452.56H9126.39L9207.29 39.5695L7987.89 1452.56H7815.47L7780.09 1543.01H8339.04L8374.26 1452.56H8122.47L8500.54 1006.23H8972.12L8941.51 1452.56ZM6662.67 771.722H6357.21V214.384H6837.09L7051.19 500.21V62.868L6938.91 122.561H5943.92V213.014H6157.87V1451.19H5943.92V1541.64H7086.42L7173.78 1103.53L6878.77 1451.19H6357.21V860.956H6662.67L6830.48 1082.98V550.004L6662.67 771.722ZM4763.9 214.384V1451.19H4552.87V1541.64H5674.6L5761.97 1103.53L5466.96 1451.19H4966.31V213.014H5180.26V122.561H4552.87V213.014L4763.9 214.384ZM3330.55 915.776L3542.35 399.555L3750.14 915.776H3330.55ZM3430.22 123.931L3491.75 280.168L3001.56 1452.71H2832.83V1543.16H3368.7V1451.19H3113.22L3296.1 1004.86H3790.44L3971.17 1451.19H3715.69V1541.64H4357.54V1451.19H4184.96L3636.63 122.561L3430.22 123.931ZM1850.14 213.014H2105.62V122.561H1463.77V213.014H1636.19L2205.29 1626L2774.38 213.014H2946.8V122.561H2406.93V213.014H2662.25L2250.97 1263.73L1850.14 213.014ZM-387.318 213.014H-32.0186V1451.19H-266.731V1541.64H402.184V1451.19H167.471V213.014H522.616L736.564 519.397V62.5632L624.438 122.256H-489.14L-601.266 62.5632V519.397L-387.318 213.014ZM-1353.24 200.679C-1158.06 200.679 -1020.86 367.271 -912.883 560.664V97.4349L-1056.23 204.029C-1114.37 150.58 -1224.5 101.242 -1344.93 101.242C-1585.95 101.242 -1758.37 282.148 -1758.37 496.098C-1758.37 936.181 -1045.77 823.039 -1045.77 1201.6C-1045.77 1368.19 -1174.67 1460.47 -1330.48 1460.47C-1536.12 1460.47 -1691.93 1314.29 -1795.75 1067.6V1410.98C-1696.08 1501.59 -1527.81 1561.13 -1376.16 1561.13C-1091.46 1561.13 -860.896 1380.22 -860.896 1119.52C-860.896 683.552 -1592.1 751.468 -1592.1 426.507C-1592.1 294.787 -1494.59 200.222 -1353.24 200.222V200.679ZM-2510.34 770.351H-2815.81V213.014H-2336.54L-2121.21 498.839V62.868L-2233.33 122.561H-3228.63V213.014H-3014.68V1451.19H-3228.63V1541.64H-2086.14L-1998.93 1103.53L-2294.24 1451.19H-2815.81V860.956H-2510.34L-2346.23 1082.98V550.004L-2510.34 770.351ZM-4359.28 213.014H-4207.63C-3981.22 213.014 -3819.1 297.376 -3819.1 494.728C-3819.1 692.08 -3981.22 786.797 -4207.63 786.797H-4359.28V213.014ZM-4145.33 1451.19H-4359.28V871.159H-4222.08L-3632.23 1541.18H-3374.6L-4006.14 852.733C-3783.88 809.486 -3609.31 688.12 -3609.31 486.505C-3609.31 229.46 -3860.63 122.561 -4205.63 122.561H-4772.72V213.014H-4558.77V1451.19H-4772.72V1541.64H-4145.33V1451.19ZM-6162.54 213.014H-5948.44V1451.19H-6162.54V1541.64H-5483.16V1451.19H-5749.1V213.014H-5595.29C-5364.58 213.014 -5200.62 307.578 -5200.62 527.62C-5200.62 721.013 -5327.36 842.378 -5631.28 842.378L-5471.32 918.517C-5246.91 918.517 -4997.59 784.817 -4997.59 533.863C-4997.59 254.128 -5244.91 122.713 -5593.91 122.713H-6163L-6162.54 213.014Z" fill="black"/>
</g>
<defs>
<clipPath id="clip0">
<rect width="1440" height="900" fill="white"/>
</clipPath>
</defs>
</svg>
