<?xml version="1.0" encoding="utf-8"?>
<!-- Generator: Adobe Illustrator 25.1.0, SVG Export Plug-In . SVG Version: 6.00 Build 0)  -->
<svg version="1.1" id="Layer_1" xmlns="http://www.w3.org/2000/svg" xmlns:xlink="http://www.w3.org/1999/xlink" x="0px" y="0px"
	 viewBox="0 0 2885 260" style="enable-background:new 0 0 2885 260;" xml:space="preserve">
<g>
	<path d="M33.8,50.5h56.6c34.7,0,59.3,13.2,59.3,41.3c0,25.2-24.8,38.6-47.1,38.6l-15.9-7.6c30.2,0,42.8-12.2,42.8-31.6
		c0-22.1-16.3-31.6-39.3-31.6H74.9V184h26.5v9.1H33.8V184h21.3V59.6H33.8V50.5z"/>
	<path d="M231.8,193.1h-62.4V184h21.3V59.6h-21.3v-9.1h56.4c34.3,0,59.3,10.7,59.3,36.6c0,20.3-17.4,32.4-39.5,36.8l62.8,69.2h-25.6
		l-58.7-67.4h-13.6V184h21.3V193.1z M210.5,117.3h15.1c22.5,0,38.6-9.5,38.6-29.3s-16.1-28.3-38.6-28.3h-15.1V117.3z"/>
	<path d="M408.1,93.5V147l-16.3-22.3h-30.4V184h51.9l29.3-34.9l-8.7,44H320.2V184h21.3V59.6h-21.3v-9.1h99l11.2-6v43.8l-21.3-28.7
		h-47.7v56h30.4L408.1,93.5z"/>
	<path d="M480.4,81.1c0,32.7,72.7,25.8,72.7,69.6c0,26.2-22.9,44.4-51.3,44.4c-15.1,0-31.8-6-41.7-15.1v-34.5
		c10.3,24.8,25.8,39.5,46.3,39.5c15.5,0,28.3-9.3,28.3-26c0-38-70.9-26.7-70.9-70.9c0-21.5,17.2-39.7,41.1-39.7
		c12,0,22.9,5,28.7,10.3L548,48v46.5c-10.7-19.4-24.4-36.2-43.8-36.2C490.1,58.4,480.4,67.9,480.4,81.1z"/>
	<path d="M576.3,90.4V44.5l11.2,6h110.8l11.2-6v45.9l-21.3-30.8h-35.3V184h23.4v9.1h-66.5V184h23.4V59.6h-35.3L576.3,90.4z"/>
	<path d="M889.8,165.2l40.9-105.6h-25.4v-9.1H959v9.1h-17.2l-56.6,142l-56.6-142h-17.2v-9.1h63.9v9.1h-25.4L889.8,165.2z"/>
	<path d="M1029.1,50.5l54.6,133.5h17.2v9.1h-63.9V184h25.4l-18-44.8h-49.2L977,184h25.4v9.1h-53.3V184h17.2L1015,66.2l-6.2-15.7
		H1029.1z M1040.7,130.1L1020,78.2l-21.1,51.9H1040.7z"/>
	<path d="M1117.5,59.6v-9.1h62.4v9.1h-21.3V184h49.8l29.3-34.9l-8.7,44h-111.6V184h21.3V59.6H1117.5z"/>
	<path d="M1341.4,93.5V147l-16.3-22.3h-30.4V184h51.9l29.3-34.9l-8.7,44h-113.7V184h21.3V59.6h-21.3v-9.1h99l11.2-6v43.8l-21.3-28.7
		h-47.7v56h30.4L1341.4,93.5z"/>
</g>
<g>
	<path d="M1560.2,50.5l54.6,133.5h17.2v9.1h-63.9V184h25.4l-18-44.8h-49.2l-18.2,44.8h25.4v9.1h-53.3V184h17.2l48.8-117.8l-6.2-15.7
		H1560.2z M1571.8,130.1l-20.7-51.9l-21.1,51.9H1571.8z"/>
	<path d="M1699.7,193.1h-62.4V184h21.3V59.6h-21.3v-9.1h56.4c34.3,0,59.3,10.7,59.3,36.6c0,20.3-17.4,32.4-39.5,36.8l62.8,69.2
		h-25.6l-58.7-67.4h-13.6V184h21.3V193.1z M1678.5,117.3h15.1c22.5,0,38.6-9.5,38.6-29.3s-16.1-28.3-38.6-28.3h-15.1V117.3z"/>
	<path d="M1847.9,48.5c15.9,0,27.3,5.2,35.5,10.7l13.8-10.7V95c-12.2-19.4-26.7-36.6-51.5-36.6c-25.6,0-50,22.7-50,57.7
		c0,40.9,28.5,63.4,58.7,63.4c19.8,0,34.3-7.4,46.9-20.3c-7,19.4-28.1,36-55.6,36c-36.8,0-69.6-27.1-69.6-70.1
		C1776.2,79,1812.8,48.5,1847.9,48.5z"/>
	<path d="M1978.5,50.5v9.1h-21.3v56h81.4v-56h-21.3v-9.1h62.4v9.1h-21.3V184h21.3v9.1h-62.4V184h21.3v-59.3h-81.4V184h21.3v9.1
		h-62.4V184h21.3V59.6h-21.3v-9.1H1978.5z"/>
	<path d="M2166,50.5v9.1h-21.3V184h21.3v9.1h-62.4V184h21.3V59.6h-21.3v-9.1H2166z"/>
	<path d="M2182.7,90.4V44.5l11.2,6h110.8l11.2-6v45.9l-21.3-30.8h-35.3V184h23.4v9.1H2216V184h23.4V59.6H2204L2182.7,90.4z"/>
	<path d="M2420.4,93.5V147l-16.3-22.3h-30.4V184h51.9l29.3-34.9l-8.7,44h-113.7V184h21.3V59.6h-21.3v-9.1h99l11.2-6v43.8l-21.3-28.7
		h-47.7v56h30.4L2420.4,93.5z"/>
	<path d="M2539.2,48.5c15.9,0,27.3,5.2,35.5,10.7l13.8-10.7V95c-12.2-19.4-26.7-36.6-51.5-36.6c-25.6,0-50,22.7-50,57.7
		c0,40.9,28.5,63.4,58.7,63.4c19.8,0,34.3-7.4,46.9-20.3c-7,19.4-28.1,36-55.6,36c-36.8,0-69.6-27.1-69.6-70.1
		C2467.5,79,2504.1,48.5,2539.2,48.5z"/>
	<path d="M2608.6,90.4V44.5l11.2,6h110.8l11.2-6v45.9l-21.3-30.8h-35.3V184h23.4v9.1h-66.5V184h23.4V59.6h-35.3L2608.6,90.4z"/>
	<path d="M2774.4,81.1c0,32.7,72.7,25.8,72.7,69.6c0,26.2-22.9,44.4-51.3,44.4c-15.1,0-31.8-6-41.7-15.1v-34.5
		c10.3,24.8,25.8,39.5,46.3,39.5c15.5,0,28.3-9.3,28.3-26c0-38-70.9-26.7-70.9-70.9c0-21.5,17.2-39.7,41.1-39.7
		c12,0,22.9,5,28.7,10.3L2842,48v46.5c-10.7-19.4-24.4-36.2-43.8-36.2C2784.1,58.4,2774.4,67.9,2774.4,81.1z"/>
</g>
</svg>
