<?xml version="1.0" encoding="utf-8"?>
<!-- Generator: Adobe Illustrator 25.1.0, SVG Export Plug-In . SVG Version: 6.00 Build 0)  -->
<svg version="1.1" id="Layer_1" xmlns="http://www.w3.org/2000/svg" xmlns:xlink="http://www.w3.org/1999/xlink" x="0px" y="0px"
	 viewBox="0 0 1400 525" style="enable-background:new 0 0 1400 525;" xml:space="preserve">
<g>
	<path d="M101.4,184.1H74.9V59.7h15.3c22.9,0,39.3,9.5,39.3,31.6c0,19.4-12.6,31.6-42.8,31.6l15.9,7.6c22.3,0,47.1-13.4,47.1-38.6
		c0-28.1-24.6-41.3-59.3-41.3H33.8v9.1h21.3v124.4H33.8v9.1h67.6V184.1z"/>
	<path d="M231.8,184.1h-21.3v-58.3h13.6l58.7,67.4h25.6l-62.8-69.2c22.1-4.3,39.5-16.5,39.5-36.8c0-25.8-25-36.6-59.3-36.6h-56.4
		v9.1h21.3v124.4h-21.3v9.1h62.4V184.1z M210.5,59.7h15.1c22.5,0,38.6,8.5,38.6,28.3s-16.1,29.3-38.6,29.3h-15.1V59.7z"/>
	<polygon points="361.4,184.1 361.4,124.8 391.7,124.8 408.1,147.1 408.1,93.6 391.7,115.7 361.4,115.7 361.4,59.7 409.1,59.7 
		430.4,88.4 430.4,44.6 419.2,50.6 320.2,50.6 320.2,59.7 341.5,59.7 341.5,184.1 320.2,184.1 320.2,193.2 433.9,193.2 442.6,149.2 
		413.2,184.1 	"/>
	<path d="M553.1,150.8c0-43.8-72.7-37-72.7-69.6c0-13.2,9.7-22.7,23.8-22.7c19.4,0,33.1,16.7,43.8,36.2V48.1l-14.3,10.7
		c-5.8-5.4-16.7-10.3-28.7-10.3c-24,0-41.1,18.2-41.1,39.7c0,44.2,70.9,32.9,70.9,70.9c0,16.7-12.8,26-28.3,26
		c-20.5,0-36-14.7-46.3-39.5v34.5c9.9,9.1,26.7,15.1,41.7,15.1C530.2,195.2,553.1,177.1,553.1,150.8z"/>
	<polygon points="587.5,50.6 576.3,44.6 576.3,90.5 597.6,59.7 632.9,59.7 632.9,184.1 609.6,184.1 609.6,193.2 676.1,193.2 
		676.1,184.1 652.8,184.1 652.8,59.7 688.1,59.7 709.4,90.5 709.4,44.6 698.2,50.6 	"/>
	<polygon points="885.3,201.6 941.9,59.7 959,59.7 959,50.6 905.3,50.6 905.3,59.7 930.7,59.7 889.8,165.3 849.9,59.7 875.3,59.7 
		875.3,50.6 811.5,50.6 811.5,59.7 828.6,59.7 	"/>
	<path d="M995.2,139.2h49.2l18,44.8h-25.4v9.1h63.9v-9.1h-17.2l-54.6-133.5h-20.3l6.2,15.7l-48.8,117.8h-17.2v9.1h53.3v-9.1H977
		L995.2,139.2z M1020,78.3l20.7,51.9h-41.7L1020,78.3z"/>
	<polygon points="1237.8,149.2 1208.5,184.1 1158.7,184.1 1158.7,59.7 1179.9,59.7 1179.9,50.6 1117.5,50.6 1117.5,59.7 
		1138.8,59.7 1138.8,184.1 1117.5,184.1 1117.5,193.2 1229.1,193.2 	"/>
	<polygon points="1375.9,149.2 1346.5,184.1 1294.6,184.1 1294.6,124.8 1325,124.8 1341.4,147.1 1341.4,93.6 1325,115.7 
		1294.6,115.7 1294.6,59.7 1342.4,59.7 1363.7,88.4 1363.7,44.6 1352.5,50.6 1253.5,50.6 1253.5,59.7 1274.8,59.7 1274.8,184.1 
		1253.5,184.1 1253.5,193.2 1367.2,193.2 	"/>
	<path d="M96.6,335.8H76.3l6.2,15.7L33.7,469.3H16.6v9.1h53.3v-9.1H44.5l18.2-44.8h49.2l18,44.8h-25.4v9.1h63.9v-9.1h-17.2
		L96.6,335.8z M66.4,415.3l21.1-51.9l20.7,51.9H66.4z"/>
	<path d="M289.4,372.3c0-25.8-25-36.6-59.3-36.6h-56.4v9.1h21.3v124.4h-21.3v9.1H236v-9.1h-21.3V411h13.6l58.7,67.4h25.6l-62.8-69.2
		C272,404.8,289.4,392.6,289.4,372.3z M214.8,402.5v-57.7h15.1c22.5,0,38.6,8.5,38.6,28.3s-16.1,29.3-38.6,29.3H214.8z"/>
	<path d="M332.1,401.3c0-34.9,24.4-57.7,50-57.7c24.8,0,39.3,17.2,51.5,36.6v-46.5l-13.8,10.7c-8.3-5.6-19.6-10.7-35.5-10.7
		c-35.1,0-71.7,30.6-71.7,76.7c0,43,32.9,70.1,69.6,70.1c27.5,0,48.6-16.5,55.6-36c-12.6,12.8-27.1,20.3-46.9,20.3
		C360.7,464.7,332.1,442.2,332.1,401.3z"/>
	<polygon points="553.7,344.8 575,344.8 575,400.9 493.5,400.9 493.5,344.8 514.8,344.8 514.8,335.8 452.4,335.8 452.4,344.8 
		473.7,344.8 473.7,469.3 452.4,469.3 452.4,478.4 514.8,478.4 514.8,469.3 493.5,469.3 493.5,409.9 575,409.9 575,469.3 
		553.7,469.3 553.7,478.4 616.1,478.4 616.1,469.3 594.8,469.3 594.8,344.8 616.1,344.8 616.1,335.8 553.7,335.8 	"/>
	<polygon points="639.9,344.8 661.1,344.8 661.1,469.3 639.9,469.3 639.9,478.4 702.3,478.4 702.3,469.3 681,469.3 681,344.8 
		702.3,344.8 702.3,335.8 639.9,335.8 	"/>
	<polygon points="730.2,335.8 719,329.8 719,375.6 740.3,344.8 775.6,344.8 775.6,469.3 752.3,469.3 752.3,478.4 818.8,478.4 
		818.8,469.3 795.5,469.3 795.5,344.8 830.8,344.8 852.1,375.6 852.1,329.8 840.9,335.8 	"/>
	<polygon points="910,469.3 910,409.9 940.3,409.9 956.7,432.3 956.7,378.7 940.3,400.9 910,400.9 910,344.8 957.7,344.8 979,373.6 
		979,329.8 967.8,335.8 868.8,335.8 868.8,344.8 890.1,344.8 890.1,469.3 868.8,469.3 868.8,478.4 982.5,478.4 991.2,434.3 
		961.8,469.3 	"/>
	<path d="M1023.4,401.3c0-34.9,24.4-57.7,50-57.7c24.8,0,39.3,17.2,51.5,36.6v-46.5l-13.8,10.7c-8.3-5.6-19.6-10.7-35.5-10.7
		c-35.1,0-71.7,30.6-71.7,76.7c0,43,32.9,70.1,69.6,70.1c27.5,0,48.6-16.5,55.6-36c-12.6,12.8-27.1,20.3-46.9,20.3
		C1051.9,464.7,1023.4,442.2,1023.4,401.3z"/>
	<polygon points="1156.1,335.8 1144.9,329.8 1144.9,375.6 1166.2,344.8 1201.6,344.8 1201.6,469.3 1178.2,469.3 1178.2,478.4 
		1244.8,478.4 1244.8,469.3 1221.4,469.3 1221.4,344.8 1256.7,344.8 1278,375.6 1278,329.8 1266.9,335.8 	"/>
	<path d="M1310.7,366.3c0-13.2,9.7-22.7,23.8-22.7c19.4,0,33.1,16.7,43.8,36.2v-46.5L1364,344c-5.8-5.4-16.7-10.3-28.7-10.3
		c-24,0-41.1,18.2-41.1,39.7c0,44.2,70.9,32.9,70.9,70.9c0,16.7-12.8,26-28.3,26c-20.5,0-36-14.7-46.3-39.5v34.5
		c9.9,9.1,26.7,15.1,41.7,15.1c28.3,0,51.3-18.2,51.3-44.4C1383.4,392.2,1310.7,399,1310.7,366.3z"/>
</g>
</svg>
